<mxfile host="app.diagrams.net" modified="2023-12-02T23:02:16.385Z" agent="Mozilla/5.0 (Windows NT 10.0; Win64; x64) AppleWebKit/537.36 (KHTML, like Gecko) Chrome/119.0.0.0 Safari/537.36 Edg/119.0.0.0" etag="FRSdDGDE39kYHfdY0E8n" version="22.1.5" type="device">
  <diagram name="Page-1" id="uCjvzXnVf6nPP1qbb4x4">
    <mxGraphModel dx="1729" dy="778" grid="1" gridSize="10" guides="1" tooltips="1" connect="1" arrows="1" fold="1" page="1" pageScale="1" pageWidth="850" pageHeight="1100" math="0" shadow="0">
      <root>
        <mxCell id="0" />
        <mxCell id="1" parent="0" />
        <mxCell id="A1--4IJNEpANIeUci6Tc-6" style="edgeStyle=orthogonalEdgeStyle;rounded=0;orthogonalLoop=1;jettySize=auto;html=1;exitX=0.25;exitY=1;exitDx=0;exitDy=0;entryX=0.25;entryY=0;entryDx=0;entryDy=0;" parent="1" source="A1--4IJNEpANIeUci6Tc-1" target="A1--4IJNEpANIeUci6Tc-5" edge="1">
          <mxGeometry relative="1" as="geometry" />
        </mxCell>
        <mxCell id="A1--4IJNEpANIeUci6Tc-18" style="edgeStyle=orthogonalEdgeStyle;rounded=0;orthogonalLoop=1;jettySize=auto;html=1;exitX=1;exitY=0.5;exitDx=0;exitDy=0;entryX=0.5;entryY=0;entryDx=0;entryDy=0;" parent="1" source="A1--4IJNEpANIeUci6Tc-1" target="A1--4IJNEpANIeUci6Tc-17" edge="1">
          <mxGeometry relative="1" as="geometry" />
        </mxCell>
        <mxCell id="A1--4IJNEpANIeUci6Tc-1" value="&lt;font style=&quot;font-size: 36px;&quot;&gt;main&lt;/font&gt;" style="rounded=1;whiteSpace=wrap;html=1;" parent="1" vertex="1">
          <mxGeometry x="320" y="40" width="120" height="60" as="geometry" />
        </mxCell>
        <mxCell id="A1--4IJNEpANIeUci6Tc-3" style="edgeStyle=orthogonalEdgeStyle;rounded=0;orthogonalLoop=1;jettySize=auto;html=1;exitX=0.75;exitY=0;exitDx=0;exitDy=0;entryX=0;entryY=0.75;entryDx=0;entryDy=0;" parent="1" source="A1--4IJNEpANIeUci6Tc-2" target="A1--4IJNEpANIeUci6Tc-1" edge="1">
          <mxGeometry relative="1" as="geometry" />
        </mxCell>
        <mxCell id="A1--4IJNEpANIeUci6Tc-2" value="&lt;font style=&quot;font-size: 24px;&quot;&gt;list input&lt;/font&gt;" style="rounded=1;whiteSpace=wrap;html=1;" parent="1" vertex="1">
          <mxGeometry x="120" y="120" width="120" height="60" as="geometry" />
        </mxCell>
        <mxCell id="mWS22Xee8qv51CDW8eyw-6" value="" style="edgeStyle=orthogonalEdgeStyle;rounded=0;orthogonalLoop=1;jettySize=auto;html=1;" edge="1" parent="1" source="A1--4IJNEpANIeUci6Tc-4" target="mWS22Xee8qv51CDW8eyw-5">
          <mxGeometry relative="1" as="geometry" />
        </mxCell>
        <mxCell id="A1--4IJNEpANIeUci6Tc-4" value="unsorted list" style="text;html=1;strokeColor=none;fillColor=none;align=center;verticalAlign=middle;whiteSpace=wrap;rounded=0;" parent="1" vertex="1">
          <mxGeometry x="120" y="230" width="60" height="30" as="geometry" />
        </mxCell>
        <mxCell id="A1--4IJNEpANIeUci6Tc-15" style="edgeStyle=orthogonalEdgeStyle;rounded=0;orthogonalLoop=1;jettySize=auto;html=1;exitX=0.75;exitY=0;exitDx=0;exitDy=0;entryX=0.75;entryY=1;entryDx=0;entryDy=0;" parent="1" source="A1--4IJNEpANIeUci6Tc-5" target="A1--4IJNEpANIeUci6Tc-1" edge="1">
          <mxGeometry relative="1" as="geometry" />
        </mxCell>
        <mxCell id="mWS22Xee8qv51CDW8eyw-1" style="edgeStyle=orthogonalEdgeStyle;rounded=0;orthogonalLoop=1;jettySize=auto;html=1;exitX=0.25;exitY=1;exitDx=0;exitDy=0;entryX=0.25;entryY=0;entryDx=0;entryDy=0;" edge="1" parent="1" source="A1--4IJNEpANIeUci6Tc-5" target="A1--4IJNEpANIeUci6Tc-9">
          <mxGeometry relative="1" as="geometry" />
        </mxCell>
        <mxCell id="A1--4IJNEpANIeUci6Tc-5" value="&lt;font style=&quot;font-size: 24px;&quot;&gt;segergation sort&lt;/font&gt;" style="rounded=1;whiteSpace=wrap;html=1;" parent="1" vertex="1">
          <mxGeometry x="320" y="160" width="120" height="60" as="geometry" />
        </mxCell>
        <mxCell id="A1--4IJNEpANIeUci6Tc-10" style="edgeStyle=orthogonalEdgeStyle;rounded=0;orthogonalLoop=1;jettySize=auto;html=1;exitX=0.75;exitY=0;exitDx=0;exitDy=0;entryX=0.75;entryY=1;entryDx=0;entryDy=0;" parent="1" source="A1--4IJNEpANIeUci6Tc-9" target="A1--4IJNEpANIeUci6Tc-5" edge="1">
          <mxGeometry relative="1" as="geometry" />
        </mxCell>
        <mxCell id="A1--4IJNEpANIeUci6Tc-9" value="&lt;font style=&quot;font-size: 24px;&quot;&gt;get pivot point&lt;/font&gt;" style="rounded=1;whiteSpace=wrap;html=1;" parent="1" vertex="1">
          <mxGeometry x="320" y="280" width="120" height="60" as="geometry" />
        </mxCell>
        <mxCell id="A1--4IJNEpANIeUci6Tc-11" value="pivot point" style="text;html=1;align=center;verticalAlign=middle;resizable=0;points=[];autosize=1;strokeColor=none;fillColor=none;" parent="1" vertex="1">
          <mxGeometry x="410" y="240" width="80" height="30" as="geometry" />
        </mxCell>
        <mxCell id="A1--4IJNEpANIeUci6Tc-13" style="edgeStyle=orthogonalEdgeStyle;rounded=0;orthogonalLoop=1;jettySize=auto;html=1;exitX=1;exitY=0.25;exitDx=0;exitDy=0;entryX=1;entryY=0.75;entryDx=0;entryDy=0;" parent="1" source="A1--4IJNEpANIeUci6Tc-5" target="A1--4IJNEpANIeUci6Tc-5" edge="1">
          <mxGeometry relative="1" as="geometry">
            <Array as="points">
              <mxPoint x="520" y="175" />
              <mxPoint x="520" y="205" />
            </Array>
          </mxGeometry>
        </mxCell>
        <mxCell id="mWS22Xee8qv51CDW8eyw-9" value="" style="edgeStyle=orthogonalEdgeStyle;rounded=0;orthogonalLoop=1;jettySize=auto;html=1;" edge="1" parent="1" source="A1--4IJNEpANIeUci6Tc-14" target="mWS22Xee8qv51CDW8eyw-8">
          <mxGeometry relative="1" as="geometry" />
        </mxCell>
        <mxCell id="A1--4IJNEpANIeUci6Tc-14" value="unsorted sub-list" style="text;html=1;strokeColor=none;fillColor=none;align=center;verticalAlign=middle;whiteSpace=wrap;rounded=0;" parent="1" vertex="1">
          <mxGeometry x="120" y="265" width="60" height="30" as="geometry" />
        </mxCell>
        <mxCell id="mWS22Xee8qv51CDW8eyw-11" value="" style="edgeStyle=orthogonalEdgeStyle;rounded=0;orthogonalLoop=1;jettySize=auto;html=1;" edge="1" parent="1" source="A1--4IJNEpANIeUci6Tc-16" target="mWS22Xee8qv51CDW8eyw-10">
          <mxGeometry relative="1" as="geometry" />
        </mxCell>
        <mxCell id="A1--4IJNEpANIeUci6Tc-16" value="sorted list" style="text;html=1;strokeColor=none;fillColor=none;align=center;verticalAlign=middle;whiteSpace=wrap;rounded=0;" parent="1" vertex="1">
          <mxGeometry x="120" y="295" width="60" height="30" as="geometry" />
        </mxCell>
        <mxCell id="A1--4IJNEpANIeUci6Tc-17" value="&lt;font style=&quot;font-size: 24px;&quot;&gt;display&lt;br&gt;&lt;/font&gt;" style="rounded=1;whiteSpace=wrap;html=1;" parent="1" vertex="1">
          <mxGeometry x="540" y="120" width="120" height="60" as="geometry" />
        </mxCell>
        <mxCell id="mWS22Xee8qv51CDW8eyw-2" value="&lt;font style=&quot;font-size: 14px;&quot;&gt;i-start&lt;br&gt;i-end&lt;/font&gt;" style="text;html=1;align=center;verticalAlign=middle;resizable=0;points=[];autosize=1;strokeColor=none;fillColor=none;" vertex="1" parent="1">
          <mxGeometry x="300" y="220" width="60" height="50" as="geometry" />
        </mxCell>
        <mxCell id="mWS22Xee8qv51CDW8eyw-3" value="&lt;font style=&quot;font-size: 14px;&quot;&gt;i-start&lt;br&gt;i-end&lt;/font&gt;" style="text;html=1;align=center;verticalAlign=middle;resizable=0;points=[];autosize=1;strokeColor=none;fillColor=none;" vertex="1" parent="1">
          <mxGeometry x="340" y="100" width="60" height="50" as="geometry" />
        </mxCell>
        <mxCell id="mWS22Xee8qv51CDW8eyw-5" value="array&amp;nbsp; 1" style="text;html=1;strokeColor=none;fillColor=none;align=center;verticalAlign=middle;whiteSpace=wrap;rounded=0;" vertex="1" parent="1">
          <mxGeometry x="200" y="230" width="60" height="30" as="geometry" />
        </mxCell>
        <mxCell id="mWS22Xee8qv51CDW8eyw-8" value="array 2" style="text;html=1;strokeColor=none;fillColor=none;align=center;verticalAlign=middle;whiteSpace=wrap;rounded=0;" vertex="1" parent="1">
          <mxGeometry x="200" y="265" width="60" height="30" as="geometry" />
        </mxCell>
        <mxCell id="mWS22Xee8qv51CDW8eyw-10" value="array 3" style="text;html=1;strokeColor=none;fillColor=none;align=center;verticalAlign=middle;whiteSpace=wrap;rounded=0;" vertex="1" parent="1">
          <mxGeometry x="200" y="295" width="60" height="30" as="geometry" />
        </mxCell>
        <mxCell id="mWS22Xee8qv51CDW8eyw-12" value="array&amp;nbsp; 1" style="text;html=1;strokeColor=none;fillColor=none;align=center;verticalAlign=middle;whiteSpace=wrap;rounded=0;" vertex="1" parent="1">
          <mxGeometry x="230" y="50" width="60" height="30" as="geometry" />
        </mxCell>
        <mxCell id="mWS22Xee8qv51CDW8eyw-13" value="array&amp;nbsp; 1" style="text;html=1;strokeColor=none;fillColor=none;align=center;verticalAlign=middle;whiteSpace=wrap;rounded=0;" vertex="1" parent="1">
          <mxGeometry x="290" y="110" width="60" height="30" as="geometry" />
        </mxCell>
        <mxCell id="mWS22Xee8qv51CDW8eyw-14" value="array 2" style="text;html=1;strokeColor=none;fillColor=none;align=center;verticalAlign=middle;whiteSpace=wrap;rounded=0;" vertex="1" parent="1">
          <mxGeometry x="450" y="175" width="60" height="30" as="geometry" />
        </mxCell>
        <mxCell id="mWS22Xee8qv51CDW8eyw-15" value="&lt;font style=&quot;font-size: 14px;&quot;&gt;i-start&lt;br&gt;i-end&lt;/font&gt;" style="text;html=1;align=center;verticalAlign=middle;resizable=0;points=[];autosize=1;strokeColor=none;fillColor=none;" vertex="1" parent="1">
          <mxGeometry x="480" y="200" width="60" height="50" as="geometry" />
        </mxCell>
        <mxCell id="mWS22Xee8qv51CDW8eyw-16" value="array 3" style="text;html=1;strokeColor=none;fillColor=none;align=center;verticalAlign=middle;whiteSpace=wrap;rounded=0;" vertex="1" parent="1">
          <mxGeometry x="400" y="120" width="60" height="30" as="geometry" />
        </mxCell>
        <mxCell id="mWS22Xee8qv51CDW8eyw-17" value="array 3" style="text;html=1;strokeColor=none;fillColor=none;align=center;verticalAlign=middle;whiteSpace=wrap;rounded=0;" vertex="1" parent="1">
          <mxGeometry x="470" y="40" width="60" height="30" as="geometry" />
        </mxCell>
      </root>
    </mxGraphModel>
  </diagram>
</mxfile>
